Coordinates
version=1
nRows=9
nColumns=24
inDegrees=yes

Units are S.I. units (second, meters, Newtons, ...)
Angles are in degrees.

endheader
time	pelvis_tilt	pelvis_list	pelvis_rotation	pelvis_tx	pelvis_ty	pelvis_tz	hip_flexion_r	hip_adduction_r	hip_rotation_r	knee_angle_r	ankle_angle_r	subtalar_angle_r	mtp_angle_r	hip_flexion_l	hip_adduction_l	hip_rotation_l	knee_angle_l	ankle_angle_l	subtalar_angle_l	mtp_angle_l	lumbar_extension	lumbar_bending	lumbar_rotation
      0.52900000	      6.79178050	      0.49897574	      3.25660275	     -0.82905719	      0.99355399	      0.32366652	     16.00520602	      2.12782201	     -4.43866149	     -0.96011474	      4.21408617	    -13.28790620	     -0.57467361	    -23.26684857	      3.16843438	      5.36184977	     -9.15683647	      9.59032814	     -5.81121079	      0.60422164	     -8.37110746	      2.64204133	     -0.93109632
      0.53316667	      6.78847153	      0.44066146	      3.26288639	     -0.82298863	      0.99313756	      0.32402992	     15.98406831	      2.27400648	     -4.42686988	     -1.18008236	      4.10813722	    -13.39562333	     -0.80610942	    -23.30732824	      3.04029741	      4.99333463	     -9.75042228	      9.58232640	     -5.15703487	      0.83222218	     -8.30988882	      2.70655863	     -0.97416456
      0.53733333	      6.72412355	      0.41549839	      3.25968245	     -0.81693083	      0.99268809	      0.32438657	     16.05954265	      2.37929881	     -4.38093572	     -1.52402808	      4.02525080	    -13.53433337	     -1.02562784	    -23.29473376	      2.96839552	      4.78349737	    -10.31109259	      9.43501263	     -4.83384316	      1.12022739	     -8.17736585	      2.72622841	     -1.03513894
      0.54150000	      6.70530248	      0.36350111	      3.25316730	     -0.81078869	      0.99232557	      0.32474235	     16.06832538	      2.51670062	     -4.32062487	     -1.88388319	      3.86031253	    -13.67363268	     -1.22065484	    -23.33284099	      2.86474062	      4.54508313	    -10.86990667	      9.24869817	     -4.48561216	      1.47221531	     -8.09229850	      2.78049243	     -1.08889229
      0.54566667	      6.72232078	      0.32242107	      3.23344014	     -0.80463411	      0.99204759	      0.32508651	     16.06198445	      2.64053915	     -4.29640854	     -2.33724479	      3.69241309	    -13.75953588	     -1.24708442	    -23.43818269	      2.79246121	      4.44349593	    -11.36694061	      8.94849861	     -4.46252097	      1.52825920	     -8.05853464	      2.81453626	     -1.10890220
      0.54983333	      6.67964980	      0.23026514	      3.22551722	     -0.79838049	      0.99171602	      0.32550245	     16.05458202	      2.83402300	     -4.06275535	     -2.71108879	      3.47946462	    -14.29240309	     -1.50001766	    -23.38658145	      2.62915559	      4.05229020	    -12.04595043	      8.76776773	     -3.82738808	      2.52617496	     -7.92369630	      2.92698832	     -1.16390144
      0.55400000	      6.66286840	      0.18185529	      3.18834135	     -0.79212649	      0.99145824	      0.32586651	     16.07691217	      2.96544577	     -3.99601720	     -3.22049960	      3.17714684	    -14.34649925	     -1.51530518	    -23.42277967	      2.55697364	      3.90787046	    -12.60290044	      8.38575849	     -3.83524802	      2.59081176	     -7.83895049	      2.96259062	     -1.19057965
      0.55816667	      6.55073646	      0.09303284	      3.15527036	     -0.78580091	      0.99109998	      0.32630567	     16.14309665	      3.15556403	     -3.70584074	     -3.64552491	      2.80038536	    -14.85334414	     -1.94206686	    -23.27217828	      2.41423544	      3.54188033	    -13.31236675	      8.02052906	     -3.44161891	      7.91474982	     -7.60639766	      3.07057377	     -1.24867135
      0.56233333	      6.49866302	      0.02021761	      3.12612282	     -0.77946564	      0.99085479	      0.32670420	     16.16748875	      3.31751133	     -3.54508341	     -4.13796200	      2.41078083	    -15.11801988	     -1.93042642	    -23.19470872	      2.29367213	      3.27062121	    -14.01069782	      7.64235278	     -3.12584479	      7.98273720	     -7.45713867	      3.14343826	     -1.26472807
